<?xml version="1.0" encoding="utf-8"?>
<!-- Generator: Adobe Illustrator 16.0.0, SVG Export Plug-In . SVG Version: 6.00 Build 0)  -->
<!DOCTYPE svg PUBLIC "-//W3C//DTD SVG 1.1//EN" "http://www.w3.org/Graphics/SVG/1.1/DTD/svg11.dtd">
<svg version="1.1" id="Layer_1" xmlns="http://www.w3.org/2000/svg" xmlns:xlink="http://www.w3.org/1999/xlink" x="0px" y="0px"
	 width="76.492px" height="76.492px" viewBox="0 0 76.492 76.492" enable-background="new 0 0 76.492 76.492" xml:space="preserve">
<g id="export_diagram">
	
		<rect x="37.246" y="30.114" fill="none" stroke="#7AC5E2" stroke-width="2" stroke-linecap="round" stroke-linejoin="round" stroke-miterlimit="10" width="15.737" height="9.833"/>
	<g>
		
			<path fill="none" stroke="#7AC5E2" stroke-width="3.5" stroke-linecap="round" stroke-linejoin="round" stroke-miterlimit="10" d="
			M27.018,29.678c0,0,0-1.704,0-3.787c0-2.083,1.8-3.788,4-3.788h25.3c2.199,0,4,1.8,4,4v25.3c0,2.2-1.799,4-4,4l-25.3-0.001
			c-2.2,0-4-1.703-4-3.787c0-2.083,0-3.787,0-3.787"/>
	</g>
	
		<line fill="none" stroke="#7AC5E2" stroke-width="2" stroke-linecap="round" stroke-linejoin="round" stroke-miterlimit="10" x1="31.126" y1="38.895" x2="17.126" y2="38.895"/>
	
		<polyline fill="none" stroke="#7AC5E2" stroke-width="2" stroke-linecap="round" stroke-linejoin="round" stroke-miterlimit="10" points="
		24.126,34.062 15.959,38.895 24.126,43.728 	"/>
	
		<line fill="none" stroke="#7AC5E2" stroke-width="2" stroke-linecap="round" stroke-linejoin="round" stroke-miterlimit="10" x1="41.49" y1="35.03" x2="48.74" y2="35.03"/>
	
		<line fill="none" stroke="#7AC5E2" stroke-width="1.9162" stroke-linecap="round" stroke-linejoin="round" stroke-miterlimit="10" stroke-dasharray="1.9162,3.8324" x1="45.115" y1="41.033" x2="45.115" y2="53.182"/>
</g>
</svg>
