<?xml version="1.0" encoding="utf-8"?>
<!-- Generator: Adobe Illustrator 16.0.0, SVG Export Plug-In . SVG Version: 6.00 Build 0)  -->
<!DOCTYPE svg PUBLIC "-//W3C//DTD SVG 1.1//EN" "http://www.w3.org/Graphics/SVG/1.1/DTD/svg11.dtd">
<svg version="1.1" id="Layer_1" xmlns="http://www.w3.org/2000/svg" xmlns:xlink="http://www.w3.org/1999/xlink" x="0px" y="0px"
	 width="76.492px" height="76.492px" viewBox="0 0 76.492 76.492" enable-background="new 0 0 76.492 76.492" xml:space="preserve">
<g id="info">
	<g>
		
			<path fill="none" stroke="#7AC5E2" stroke-width="3.5" stroke-linecap="round" stroke-linejoin="round" stroke-miterlimit="10" d="
			M55.122,51.388c0,2.2-1.8,4-4,4h-25.3c-2.2,0-4-1.8-4-4v-25.3c0-2.2,1.8-4,4-4h25.3c2.2,0,4,1.8,4,4V51.388z"/>
	</g>
	<g>
		<path fill="#7AC5E2" d="M36.043,48.492v-1.479h0.845V36.929h-0.845v-1.479h4.066v11.564H40.9v1.479H36.043z M39.805,32.494
			c-0.396,0.404-0.876,0.606-1.439,0.606c-0.281,0-0.545-0.053-0.792-0.159c-0.247-0.104-0.462-0.25-0.647-0.435
			c-0.185-0.185-0.33-0.405-0.436-0.661c-0.105-0.254-0.158-0.522-0.158-0.804c0-0.282,0.053-0.551,0.158-0.806
			c0.106-0.255,0.251-0.476,0.436-0.66c0.185-0.185,0.4-0.33,0.647-0.436c0.246-0.105,0.51-0.158,0.792-0.158
			c0.563,0,1.043,0.202,1.439,0.606c0.396,0.405,0.594,0.89,0.594,1.453C40.399,31.604,40.201,32.089,39.805,32.494z"/>
	</g>
</g>
</svg>
