<?xml version="1.0" encoding="utf-8"?>
<!-- Generator: Adobe Illustrator 16.0.0, SVG Export Plug-In . SVG Version: 6.00 Build 0)  -->
<!DOCTYPE svg PUBLIC "-//W3C//DTD SVG 1.1//EN" "http://www.w3.org/Graphics/SVG/1.1/DTD/svg11.dtd">
<svg version="1.1" id="Layer_1" xmlns="http://www.w3.org/2000/svg" xmlns:xlink="http://www.w3.org/1999/xlink" x="0px" y="0px"
	 width="76.492px" height="76.492px" viewBox="0 0 76.492 76.492" enable-background="new 0 0 76.492 76.492" xml:space="preserve">
<g>
	<g>
		
			<path fill="none" stroke="#7AC5E2" stroke-width="3.5" stroke-linecap="round" stroke-linejoin="round" stroke-miterlimit="10" d="
			M55.122,51.388c0,2.2-1.8,4-4,4h-25.3c-2.2,0-4-1.8-4-4v-25.3c0-2.2,1.8-4,4-4h25.3c2.2,0,4,1.8,4,4V51.388z"/>
	</g>
	<path fill="#7AC5E2" d="M39.591,47.886c-0.396,0.404-0.875,0.606-1.438,0.606c-0.281,0-0.546-0.053-0.792-0.159
		c-0.247-0.104-0.462-0.25-0.647-0.435c-0.185-0.185-0.329-0.405-0.436-0.661c-0.104-0.254-0.158-0.522-0.158-0.804
		c0-0.282,0.054-0.551,0.158-0.806c0.106-0.255,0.251-0.476,0.436-0.66c0.186-0.185,0.4-0.33,0.647-0.436
		c0.246-0.105,0.511-0.158,0.792-0.158c0.562,0,1.042,0.202,1.438,0.606c0.396,0.405,0.595,0.89,0.595,1.453
		C40.186,46.996,39.987,47.48,39.591,47.886z"/>
	<path fill="#7AC5E2" d="M36.895,42.59c-0.172-1.553,0.345-3.248,1.781-4.972c1.293-1.523,2.012-2.644,2.012-3.938
		c0-1.465-0.92-2.091-2.73-2.119c-1.035,0-2.021,0.265-2.739,0.811l-1.515-1.44c0.958-0.834,2.224-1.791,4.771-1.791
		c3.305,0,4.799,2.04,4.799,4.225c0,1.954-1.093,3.362-2.472,5c-1.265,1.494-1.724,2.759-1.638,4.225H36.895z"/>
</g>
</svg>
