<?xml version="1.0" encoding="utf-8"?>
<!-- Generator: Adobe Illustrator 16.0.0, SVG Export Plug-In . SVG Version: 6.00 Build 0)  -->
<!DOCTYPE svg PUBLIC "-//W3C//DTD SVG 1.1//EN" "http://www.w3.org/Graphics/SVG/1.1/DTD/svg11.dtd">
<svg version="1.1" id="Layer_1" xmlns="http://www.w3.org/2000/svg" xmlns:xlink="http://www.w3.org/1999/xlink" x="0px" y="0px"
	 width="76.492px" height="76.492px" viewBox="0 0 76.492 76.492" enable-background="new 0 0 76.492 76.492" xml:space="preserve">
<g id="JPG_LQ">
	<path fill="#7AC5E2" d="M32.638,59.851h3.35v1.546h-4.896v-7.844h1.546V59.851z"/>
	<path fill="#7AC5E2" d="M38.705,54.702c0.766-0.767,1.69-1.149,2.773-1.149s2.007,0.383,2.773,1.149
		c0.766,0.766,1.148,1.69,1.148,2.773c0,1.082-0.383,2.007-1.148,2.772c-0.767,0.767-1.69,1.148-2.773,1.148
		s-2.008-0.382-2.773-1.148c-0.766-0.766-1.148-1.69-1.148-2.772C37.557,56.393,37.939,55.468,38.705,54.702z M43.158,55.794
		c-0.463-0.464-1.023-0.694-1.68-0.694c-0.658,0-1.217,0.23-1.681,0.694s-0.694,1.024-0.694,1.682c0,0.656,0.23,1.217,0.694,1.681
		s1.022,0.694,1.681,0.694c0.656,0,1.217-0.23,1.68-0.694c0.464-0.464,0.695-1.024,0.695-1.681
		C43.854,56.818,43.622,56.258,43.158,55.794z"/>
	
		<rect x="42.48" y="60.241" transform="matrix(0.4999 0.8661 -0.8661 0.4999 74.8364 -7.5783)" fill="#7AC5E2" width="3" height="1.547"/>
	<g>
		
			<path fill="none" stroke="#7AC5E2" stroke-width="3.5" stroke-linecap="round" stroke-linejoin="round" stroke-miterlimit="10" d="
			M47.321,13.793c0,0,1.704,0,3.787,0s3.787,1.8,3.787,4v25.3c0,2.2-1.8,4-4,4H25.597c-2.2,0-4-1.8-4-4v-25.3c0-2.2,1.8-4,4-4
			H47.321"/>
	</g>
	<g>
		<g>
			<path fill="#7AC5E2" d="M46.894,15.435v9.417H29.597v-9.417H46.894 M48.535,13.793h-20.58v12.7h20.58V13.793L48.535,13.793z"/>
		</g>
	</g>
	
		<line fill="none" stroke="#7AC5E2" stroke-width="1.6417" stroke-linecap="round" stroke-linejoin="round" stroke-miterlimit="10" x1="42.746" y1="18.144" x2="42.746" y2="22.144"/>
	<g>
		<path fill="#7AC5E2" d="M32.687,32.144h1.546v4.706c0,0.867-0.307,1.606-0.919,2.219c-0.613,0.612-1.352,0.919-2.219,0.919
			c-0.844,0-1.569-0.291-2.174-0.874c-0.605-0.582-0.926-1.293-0.963-2.129h1.546c0.037,0.388,0.19,0.717,0.459,0.986
			c0.314,0.313,0.689,0.471,1.126,0.471s0.812-0.157,1.126-0.471c0.276-0.27,0.43-0.599,0.459-0.986h0.011V36.85V32.144z"/>
		<path fill="#7AC5E2" d="M38.424,32.144c0.628,0,1.162,0.223,1.604,0.667c0.439,0.443,0.66,0.98,0.66,1.607
			c0,0.628-0.221,1.164-0.66,1.608c-0.441,0.444-0.976,0.667-1.604,0.667h-1.086v3.294h-1.546v-7.833v-0.011H38.424z M38.929,34.934
			c0.142-0.142,0.213-0.313,0.213-0.516c0-0.201-0.071-0.374-0.213-0.516c-0.142-0.141-0.311-0.213-0.505-0.213h-1.086v1.457h1.086
			C38.618,35.146,38.787,35.075,38.929,34.934z"/>
		<path fill="#7AC5E2" d="M46.985,35.136h1.546v4.067c-0.693,0.522-1.479,0.784-2.353,0.784c-0.71,0-1.366-0.175-1.966-0.526
			c-0.603-0.352-1.078-0.828-1.43-1.429s-0.526-1.257-0.526-1.967s0.175-1.366,0.526-1.967s0.827-1.077,1.43-1.429
			c0.6-0.352,1.256-0.526,1.966-0.526c0.687,0,1.329,0.168,1.927,0.504l-1.164,1.166c-0.247-0.083-0.502-0.124-0.763-0.124
			c-0.657,0-1.218,0.231-1.681,0.695c-0.464,0.464-0.695,1.023-0.695,1.681s0.231,1.218,0.695,1.681
			c0.463,0.464,1.023,0.695,1.681,0.695c0.276,0,0.545-0.049,0.807-0.146V35.136z"/>
	</g>
</g>
</svg>
