<?xml version="1.0" encoding="utf-8"?>
<!-- Generator: Adobe Illustrator 16.0.0, SVG Export Plug-In . SVG Version: 6.00 Build 0)  -->
<!DOCTYPE svg PUBLIC "-//W3C//DTD SVG 1.1//EN" "http://www.w3.org/Graphics/SVG/1.1/DTD/svg11.dtd">
<svg version="1.1" id="Layer_1" xmlns="http://www.w3.org/2000/svg" xmlns:xlink="http://www.w3.org/1999/xlink" x="0px" y="0px"
	 width="76.492px" height="76.492px" viewBox="0 0 76.492 76.492" enable-background="new 0 0 76.492 76.492" xml:space="preserve">
<g>
	<g>
		
			<path fill="none" stroke="#7AC5E2" stroke-width="3.5" stroke-linecap="round" stroke-linejoin="round" stroke-miterlimit="10" d="
			M41.27,53.261H21.854c-1.984,0-3.607-1.623-3.607-3.607V26.839c0-1.983,1.623-3.606,3.607-3.606h3.742
			c1.983,0,3.606,0.883,3.606,1.962c0,1.078,1.623,1.961,3.606,1.961h11.857c1.984,0,3.607,1.555,3.607,3.456s0,3.456,0,3.456"/>
	</g>
	<g>
		
			<path fill="none" stroke="#7AC5E2" stroke-width="3.5" stroke-linecap="round" stroke-linejoin="round" stroke-miterlimit="10" d="
			M54.64,34.685c1.983,0,2.839,1.43,1.901,3.178l-6.562,12.221c-0.938,1.748-3.329,3.178-5.313,3.178H21.854
			c-1.984,0-2.84-1.43-1.9-3.178l6.561-12.221c0.938-1.748,3.329-3.178,5.312-3.178H54.64z"/>
	</g>
</g>
</svg>
