<?xml version="1.0" encoding="utf-8"?>
<!-- Generator: Adobe Illustrator 16.0.0, SVG Export Plug-In . SVG Version: 6.00 Build 0)  -->
<!DOCTYPE svg PUBLIC "-//W3C//DTD SVG 1.1//EN" "http://www.w3.org/Graphics/SVG/1.1/DTD/svg11.dtd">
<svg version="1.1" id="Layer_1" xmlns="http://www.w3.org/2000/svg" xmlns:xlink="http://www.w3.org/1999/xlink" x="0px" y="0px"
	 width="76.492px" height="76.492px" viewBox="0 0 76.492 76.492" enable-background="new 0 0 76.492 76.492" xml:space="preserve">
<g id="PNG_HQ">
	<g>
		
			<path fill="none" stroke="#7AC5E2" stroke-width="3.5" stroke-linecap="round" stroke-linejoin="round" stroke-miterlimit="10" d="
			M47.321,13.793c0,0,1.704,0,3.787,0s3.787,1.8,3.787,4v25.3c0,2.2-1.8,4-4,4H25.597c-2.2,0-4-1.8-4-4v-25.3c0-2.2,1.8-4,4-4
			H47.321"/>
	</g>
	<g>
		<g>
			<path fill="#7AC5E2" d="M46.894,15.435v9.417H29.597v-9.417H46.894 M48.535,13.793h-20.58v12.7h20.58V13.793L48.535,13.793z"/>
		</g>
	</g>
	
		<line fill="none" stroke="#7AC5E2" stroke-width="1.6417" stroke-linecap="round" stroke-linejoin="round" stroke-miterlimit="10" x1="42.746" y1="18.144" x2="42.746" y2="22.144"/>
	<g>
		<path fill="#7AC5E2" d="M30.589,32.145c0.627,0,1.161,0.223,1.602,0.666c0.44,0.444,0.661,0.98,0.661,1.608
			c0,0.627-0.221,1.163-0.661,1.607c-0.441,0.443-0.975,0.666-1.602,0.666h-1.087v3.294h-1.546v-7.831v-0.011H30.589z
			 M31.093,34.934c0.142-0.141,0.213-0.313,0.213-0.515c0-0.202-0.071-0.374-0.213-0.516c-0.142-0.142-0.31-0.213-0.504-0.213
			h-1.087v1.456h1.087C30.783,35.146,30.951,35.075,31.093,34.934z"/>
		<path fill="#7AC5E2" d="M39.148,32.145h1.545v4.817v3.024h-1.545v-3.921l-3.182-1.837v5.758H34.42v-7.842h1.546v0.303l3.182,1.837
			V32.145z"/>
		<path fill="#7AC5E2" d="M46.99,35.136h1.546v4.066c-0.694,0.522-1.479,0.784-2.353,0.784c-0.71,0-1.365-0.175-1.967-0.526
			s-1.077-0.827-1.428-1.429c-0.352-0.601-0.527-1.256-0.527-1.966s0.176-1.365,0.527-1.966c0.351-0.602,0.826-1.077,1.428-1.429
			s1.257-0.526,1.967-0.526c0.687,0,1.328,0.168,1.927,0.504l-1.165,1.165c-0.246-0.083-0.5-0.123-0.762-0.123
			c-0.658,0-1.218,0.231-1.681,0.694c-0.464,0.464-0.694,1.023-0.694,1.681s0.23,1.217,0.694,1.681
			c0.463,0.463,1.022,0.694,1.681,0.694c0.275,0,0.545-0.049,0.807-0.146V35.136z"/>
	</g>
	<path fill="#7AC5E2" d="M39.395,54.702c0.766-0.767,1.689-1.149,2.772-1.149s2.007,0.383,2.773,1.149
		c0.765,0.766,1.147,1.69,1.147,2.773c0,1.082-0.383,2.007-1.147,2.772c-0.767,0.767-1.69,1.148-2.773,1.148
		s-2.007-0.382-2.772-1.148c-0.767-0.766-1.148-1.69-1.148-2.772C38.246,56.393,38.628,55.468,39.395,54.702z M43.848,55.794
		c-0.463-0.464-1.023-0.694-1.681-0.694s-1.218,0.23-1.681,0.694s-0.695,1.024-0.695,1.682c0,0.656,0.232,1.217,0.695,1.681
		s1.023,0.694,1.681,0.694s1.218-0.23,1.681-0.694s0.695-1.024,0.695-1.681C44.543,56.818,44.311,56.258,43.848,55.794z"/>
	
		<rect x="43.169" y="60.241" transform="matrix(0.4999 0.8661 -0.8661 0.4999 75.1807 -8.1745)" fill="#7AC5E2" width="3" height="1.545"/>
	<g>
		<path fill="#7AC5E2" d="M35.132,53.552h1.547v7.846h-1.547v-4.842h-3.183v4.842h-1.547v-7.846h1.547v1.457h3.183V53.552z"/>
	</g>
</g>
</svg>
