<?xml version="1.0" encoding="utf-8"?>
<!-- Generator: Adobe Illustrator 16.0.0, SVG Export Plug-In . SVG Version: 6.00 Build 0)  -->
<!DOCTYPE svg PUBLIC "-//W3C//DTD SVG 1.1//EN" "http://www.w3.org/Graphics/SVG/1.1/DTD/svg11.dtd">
<svg version="1.1" id="Layer_1" xmlns="http://www.w3.org/2000/svg" xmlns:xlink="http://www.w3.org/1999/xlink" x="0px" y="0px"
	 width="76.492px" height="76.492px" viewBox="0 0 76.492 76.492" enable-background="new 0 0 76.492 76.492" xml:space="preserve">
<g>
	<g>
		
			<path fill="none" stroke="#7AC5E2" stroke-width="3.5" stroke-linecap="round" stroke-linejoin="round" stroke-miterlimit="10" d="
			M47.321,21.596c0,0,1.704,0,3.787,0s3.787,1.8,3.787,4v25.299c0,2.2-1.8,4-4,4H25.597c-2.2,0-4-1.8-4-4V25.596c0-2.2,1.8-4,4-4
			H47.321"/>
	</g>
	<g>
		<g>
			<path fill="#7AC5E2" d="M46.894,23.238v9.417H29.597v-9.417H46.894 M48.535,21.596h-20.58v12.7h20.58V21.596L48.535,21.596z"/>
		</g>
	</g>
	
		<line fill="none" stroke="#7AC5E2" stroke-width="1.6417" stroke-linecap="round" stroke-linejoin="round" stroke-miterlimit="10" x1="42.746" y1="25.947" x2="42.746" y2="29.947"/>
	
		<line fill="none" stroke="#7AC5E2" stroke-width="1.6417" stroke-linecap="round" stroke-linejoin="round" stroke-miterlimit="10" x1="46.728" y1="39.764" x2="29.763" y2="39.764"/>
	
		<line fill="none" stroke="#7AC5E2" stroke-width="1.6417" stroke-linecap="round" stroke-linejoin="round" stroke-miterlimit="10" x1="46.728" y1="47.973" x2="29.763" y2="47.973"/>
	
		<line fill="none" stroke="#7AC5E2" stroke-width="1.6417" stroke-linecap="round" stroke-linejoin="round" stroke-miterlimit="10" x1="46.728" y1="43.868" x2="29.763" y2="43.868"/>
</g>
</svg>
