<?xml version="1.0" encoding="utf-8"?>
<!-- Generator: Adobe Illustrator 16.0.0, SVG Export Plug-In . SVG Version: 6.00 Build 0)  -->
<!DOCTYPE svg PUBLIC "-//W3C//DTD SVG 1.1//EN" "http://www.w3.org/Graphics/SVG/1.1/DTD/svg11.dtd">
<svg version="1.1" id="Layer_1" xmlns="http://www.w3.org/2000/svg" xmlns:xlink="http://www.w3.org/1999/xlink" x="0px" y="0px"
	 width="76.492px" height="76.492px" viewBox="0 0 76.492 76.492" enable-background="new 0 0 76.492 76.492" xml:space="preserve">
<g>
	<g>
		
			<path fill="none" stroke="#7AC5E2" stroke-width="3.5" stroke-linecap="round" stroke-linejoin="round" stroke-miterlimit="10" d="
			M47.547,22.088c0,0,1.704,0,3.787,0s3.787,1.8,3.787,4v25.3c0,2.199-1.8,4-4,4H25.822c-2.2,0-4-1.801-4-4v-25.3c0-2.2,1.8-4,4-4
			H47.547"/>
	</g>
	<g>
		<g>
			<path fill="#7AC5E2" d="M47.119,23.73v9.417H29.822V23.73H47.119 M48.761,22.088h-20.58v12.701h20.58V22.088L48.761,22.088z"/>
		</g>
	</g>
	
		<line fill="none" stroke="#7AC5E2" stroke-width="1.6417" stroke-linecap="round" stroke-linejoin="round" stroke-miterlimit="10" x1="42.972" y1="26.439" x2="42.972" y2="30.439"/>
	<g>
		<path fill="#7AC5E2" d="M30.268,42.893c0.758,0,1.406,0.27,1.945,0.809s0.809,1.188,0.809,1.945s-0.27,1.406-0.809,1.945
			S31.025,48.4,30.268,48.4s-1.406-0.27-1.945-0.809s-0.809-1.188-0.809-1.945h1.617c0,0.312,0.111,0.58,0.334,0.803
			s0.49,0.334,0.803,0.334s0.58-0.111,0.803-0.334s0.334-0.49,0.334-0.803s-0.111-0.58-0.334-0.803s-0.49-0.334-0.803-0.334
			c-0.594,0-1.102-0.211-1.523-0.633s-0.633-0.93-0.633-1.523s0.211-1.102,0.633-1.523s0.93-0.633,1.523-0.633
			c0.391,0,0.752,0.098,1.084,0.293s0.592,0.457,0.779,0.785l-1.395,0.809c-0.109-0.18-0.266-0.27-0.469-0.27
			c-0.148,0-0.275,0.053-0.381,0.158s-0.158,0.232-0.158,0.381s0.053,0.275,0.158,0.381S30.119,42.893,30.268,42.893z"/>
		<path fill="#7AC5E2" d="M37.1,48.4l-2.438-8.203h1.688l1.594,5.367l1.594-5.367h1.688L38.787,48.4H37.1z"/>
		<path fill="#7AC5E2" d="M47.811,43.326h1.617v4.254c-0.727,0.547-1.547,0.82-2.461,0.82c-0.742,0-1.428-0.184-2.057-0.551
			s-1.127-0.865-1.494-1.494s-0.551-1.314-0.551-2.057s0.184-1.428,0.551-2.057s0.865-1.127,1.494-1.494s1.314-0.551,2.057-0.551
			c0.719,0,1.391,0.176,2.016,0.527l-1.219,1.219c-0.258-0.086-0.523-0.129-0.797-0.129c-0.688,0-1.273,0.242-1.758,0.727
			s-0.727,1.07-0.727,1.758s0.242,1.273,0.727,1.758s1.07,0.727,1.758,0.727c0.289,0,0.57-0.051,0.844-0.152V43.326z"/>
	</g>
</g>
</svg>
