<?xml version="1.0" encoding="utf-8"?>
<!-- Generator: Adobe Illustrator 16.0.0, SVG Export Plug-In . SVG Version: 6.00 Build 0)  -->
<!DOCTYPE svg PUBLIC "-//W3C//DTD SVG 1.1//EN" "http://www.w3.org/Graphics/SVG/1.1/DTD/svg11.dtd">
<svg version="1.1" id="Layer_1" xmlns="http://www.w3.org/2000/svg" xmlns:xlink="http://www.w3.org/1999/xlink" x="0px" y="0px"
	 width="76.492px" height="76.492px" viewBox="0 0 76.492 76.492" enable-background="new 0 0 76.492 76.492" xml:space="preserve">
<g id="URL_share_1_">
	<g>
		
			<path fill="none" stroke="#7AC5E2" stroke-width="3.5" stroke-linecap="round" stroke-linejoin="round" stroke-miterlimit="10" d="
			M47.32,27.124c0,0,1.704,0,3.787,0s3.787,1.8,3.787,4v25.3c0,2.2-1.8,4-4,4H25.596c-2.2,0-4-1.8-4-4v-25.3c0-2.2,1.704-4,3.787-4
			s3.787,0,3.787,0"/>
	</g>
	
		<line fill="none" stroke="#7AC5E2" stroke-width="1.6528" stroke-linecap="round" stroke-linejoin="round" stroke-miterlimit="10" x1="38.246" y1="31.232" x2="38.246" y2="17.232"/>
	
		<polyline fill="none" stroke="#7AC5E2" stroke-width="2" stroke-linecap="round" stroke-linejoin="round" stroke-miterlimit="10" points="
		43.078,24.232 38.246,16.066 33.412,24.232 	"/>
	<g>
		<path fill="#7AC5E2" d="M32.677,40.31h1.548v4.71c0,0.866-0.306,1.607-0.919,2.221c-0.613,0.613-1.354,0.919-2.221,0.919
			s-1.607-0.306-2.221-0.919s-0.919-1.354-0.919-2.221v-4.71h1.548v4.71c0,0.441,0.155,0.816,0.465,1.128
			c0.31,0.31,0.686,0.464,1.127,0.464s0.817-0.154,1.126-0.464c0.311-0.312,0.465-0.687,0.465-1.128V40.31z"/>
		<path fill="#7AC5E2" d="M40.28,48.159l-1.896-3.298h-1.043v3.298h-1.547v-7.838V40.31h2.636c0.627,0,1.162,0.222,1.604,0.667
			c0.44,0.444,0.661,0.982,0.661,1.609c0,0.345-0.073,0.669-0.218,0.977c-0.146,0.307-0.351,0.562-0.612,0.772l2.209,3.824H40.28z
			 M37.342,41.857v1.456h1.089c0.193,0,0.361-0.069,0.504-0.213c0.143-0.141,0.214-0.313,0.214-0.515
			c0-0.202-0.071-0.374-0.214-0.516s-0.311-0.213-0.504-0.213H37.342z"/>
		<path fill="#7AC5E2" d="M45.192,46.611h3.353v1.548h-4.899v-7.85h1.547V46.611z"/>
	</g>
</g>
</svg>
